<svg xmlns="http://www.w3.org/2000/svg" viewBox="0 0 91 128" width="91" height="128">
	<style>
		tspan { white-space:pre }
		.shp0 { fill: #264de4 } 
		.shp1 { fill: #2965f1 } 
		.shp2 { fill: #ebebeb } 
		.shp3 { fill: #000000 } 
		.shp4 { fill: #ffffff } 
	</style>
	<g id="layer1">
		<g id="g3013">
			<path id="polygon2989" class="shp0" d="M90.93 25.16L82.65 117.7L45.41 128L8.28 117.72L0 25.16L90.93 25.16Z" />
			<path id="polygon2991" class="shp1" d="M75.56 111.81L82.64 32.72L45.47 32.72L45.47 120.13L75.56 111.81Z" />
			<path id="polygon2993" class="shp2" d="M18.97 67.05L19.99 78.41L45.47 78.41L45.47 67.05L18.97 67.05Z" />
			<path id="polygon2995" class="shp2" d="M45.47 44.08L45.43 44.08L16.92 44.08L17.96 55.43L45.47 55.43L45.47 44.08Z" />
			<path id="polygon2997" class="shp2" d="M45.47 108.35L45.47 96.54L45.42 96.55L32.74 93.14L31.93 84.08L25.77 84.08L20.5 84.08L22.1 101.91L45.41 108.36L45.47 108.35Z" />
			<path id="path2999" class="shp3" d="M21.4 0L35.19 0L35.19 5.75L27.17 5.75L27.17 11.5L35.19 11.5L35.19 17.25L21.4 17.25L21.4 0Z" />
			<path id="path3001" class="shp3" d="M37.95 0L51.73 0L51.73 5L43.71 5L43.71 6L51.73 6L51.73 17.5L37.95 17.5L37.95 12.25L45.97 12.25L45.97 11.25L37.95 11.25L37.95 0Z" />
			<path id="path3003" class="shp3" d="M54.49 0L68.28 0L68.28 5L60.26 5L60.26 6L68.28 6L68.28 17.5L54.49 17.5L54.49 12.25L62.51 12.25L62.51 11.25L54.49 11.25L54.49 0Z" />
			<path id="polygon3005" class="shp4" d="M59.45 78.41L58.12 93.13L45.43 96.55L45.43 108.36L68.76 101.91L68.94 99.99L71.61 70.1L71.89 67.05L73.94 44.08L45.43 44.08L45.43 55.43L61.47 55.43L60.43 67.05L45.43 67.05L45.43 78.41L59.45 78.41Z" />
		</g>
	</g>
</svg>