<svg xmlns="http://www.w3.org/2000/svg" viewBox="0 0 128 128" width="128" height="128">
	<style>
		tspan { white-space:pre }
		.shp0 { fill: #000000 } 
		.shp1 { fill: #e44d26 } 
		.shp2 { fill: #f16529 } 
		.shp3 { fill: #ebebeb } 
		.shp4 { fill: #ffffff } 
	</style>
	<path id="Layer" class="shp0" d="M27.1 0L32.85 0L32.85 5.7L38.15 5.7L38.15 0L43.9 0L43.9 17.25L38.15 17.25L38.15 11.5L32.9 11.5L32.9 17.25L27.1 17.25M51.5 5.75L46.42 5.75L46.42 0L62.35 0L62.35 5.75L57.25 5.75L57.25 17.25L51.5 17.25M64.88 0L70.9 0L74.6 6.08L78.3 0L84.33 0L84.33 17.25L78.58 17.25L78.58 8.7L74.55 14.9L70.52 8.7L70.52 17.25L64.87 17.25M87.17 0L92.92 0L92.92 11.55L101.08 11.55L101.08 17.25L87.17 17.25" />
	<path id="Layer" class="shp1" d="M26.9 117.75L18.65 25.15L109.35 25.15L101.1 117.7L63.92 128" />
	<path id="Layer" class="shp2" d="M64 120.13L64 32.75L101.08 32.75L94 111.75" />
	<path id="Layer" class="shp3" d="M35.5 44.08L64 44.08L64 55.43L47.95 55.43L49 67.05L64 67.05L64 78.38L38.6 78.38M39.1 84.08L50.5 84.08L51.3 93.15L64 96.55L64 108.4L40.7 101.9" />
	<path id="Layer" class="shp4" d="M92.4 44.08L63.95 44.08L63.95 55.43L91.35 55.43M90.33 67.05L63.95 67.05L63.95 78.4L77.95 78.4L76.63 93.15L63.95 96.55L63.95 108.35L87.2 101.9" />
</svg>