<svg xmlns="http://www.w3.org/2000/svg" viewBox="0 0 128 128" width="128" height="128"><style>tspan { white-space:pre }.shp0 { fill: #00b0ff } .shp1 { fill: #0081cb } </style><path id="Layer" class="shp0" d="M0 69.72L0 0L48 34.86L48 58.1L16 34.86L16 81.34L0 69.72Z" /><path id="Layer" class="shp1" d="M48 34.86L96 0L96 69.72L64 92.95L48 81.34L80 58.1L80 34.86L48 58.1L48 34.86Z" /><path id="Layer" class="shp0" d="M48 81.34L48 104.57L80 127.81L80 104.57L48 81.34Z" /><path id="Layer" fill-rule="evenodd" class="shp1" d="M80 104.57L112 81.34L112 58.1L128 46.48L128 92.95L80 127.81L80 104.57ZM112 34.86L112 11.62L128 0L128 23.24L112 34.86Z" /></svg>