<svg xmlns="http://www.w3.org/2000/svg" viewBox="0 0 128 128" width="128" height="128">
	<style>
		tspan { white-space:pre }
		.shp0 { fill: #f7df1e } 
		.shp1 { fill: #000000 } 
	</style>
	<path id="Layer" class="shp0" d="M0 0L128 0L128 128L0 128L0 0Z" />
	<path id="Layer" class="shp1" d="M85.98 100C88.56 104.21 91.92 107.3 97.85 107.3C102.83 107.3 106.02 104.81 106.02 101.37C106.02 97.25 102.75 95.79 97.26 93.39L94.25 92.1C85.57 88.4 79.81 83.77 79.81 73.97C79.81 64.95 86.68 58.09 97.42 58.09C105.07 58.09 110.57 60.75 114.53 67.72L105.16 73.73C103.1 70.03 100.88 68.58 97.42 68.58C93.9 68.58 91.67 70.81 91.67 73.73C91.67 77.34 93.9 78.8 99.06 81.03L102.07 82.32C112.29 86.7 118.06 91.17 118.06 101.22C118.06 112.05 109.55 117.98 98.13 117.98C86.96 117.98 79.74 112.66 76.21 105.68L85.98 100ZM43.49 101.04C45.38 104.4 47.1 107.23 51.23 107.23C55.19 107.23 57.68 105.68 57.68 99.67L57.68 58.77L69.71 58.77L69.71 99.83C69.71 112.29 62.41 117.96 51.75 117.96C42.12 117.96 36.54 112.97 33.7 106.97L43.49 101.04Z" />
</svg>