<svg xmlns="http://www.w3.org/2000/svg" viewBox="0 0 128 128" width="128" height="128">
	<defs>
		<clipPath clipPathUnits="userSpaceOnUse" id="cp1">
			<path d="M46.44 29.56L34.27 41.05C33.81 41.48 33.53 42.27 33.53 43.13L33.53 66.12C33.53 66.97 33.81 67.77 34.27 68.2L46.44 79.69C46.9 80.12 47.46 80.12 47.91 79.69L60.08 68.2C60.54 67.77 60.82 66.97 60.82 66.12L60.82 43.13C60.82 42.27 60.54 41.48 60.08 41.05L47.91 29.56C47.68 29.35 47.43 29.24 47.17 29.24C46.92 29.24 46.66 29.35 46.44 29.56" />
		</clipPath>
		<linearGradient id="grd1" gradientUnits="userSpaceOnUse"  x1="61.538" y1="25.312" x2="32.79" y2="83.959">
			<stop offset="0.3" stop-color="#3e863d"  />
			<stop offset="0.5" stop-color="#55934f"  />
			<stop offset="0.8" stop-color="#5aad45"  />
		</linearGradient>
		<clipPath clipPathUnits="userSpaceOnUse" id="cp2">
			<path d="M33.83 67.58C33.95 67.82 34.09 68.04 34.27 68.2L44.71 78.06L46.45 79.69C46.71 79.94 47 80.04 47.3 80.01C47.39 79.99 47.49 79.96 47.58 79.92L60.42 41.49C60.32 41.32 60.21 41.17 60.08 41.05L52.11 33.52L47.9 29.56C47.78 29.45 47.65 29.37 47.52 29.31L33.83 67.58Z" />
		</clipPath>
		<linearGradient id="grd2" gradientUnits="userSpaceOnUse"  x1="31.257" y1="66.816" x2="63.29" y2="43.148">
			<stop offset="0.57" stop-color="#3e863d"  />
			<stop offset="0.72" stop-color="#619857"  />
			<stop offset="1" stop-color="#76ac64"  />
		</linearGradient>
		<clipPath clipPathUnits="userSpaceOnUse" id="cp3">
			<path d="M47.03 29.25C46.82 29.29 46.62 29.39 46.44 29.56L34.3 41.01L47.39 79.99C47.57 79.94 47.75 79.84 47.91 79.69L60.09 68.2C60.46 67.84 60.72 67.24 60.8 66.56L47.45 29.29C47.36 29.26 47.26 29.25 47.16 29.25C47.12 29.25 47.08 29.25 47.03 29.25" />
		</clipPath>
		<linearGradient id="grd3" gradientUnits="userSpaceOnUse"  x1="34.31" y1="54.618" x2="60.797" y2="54.618">
			<stop offset="0.16" stop-color="#6bbf47"  />
			<stop offset="0.38" stop-color="#79b461"  />
			<stop offset="0.47" stop-color="#75ac64"  />
			<stop offset="0.7" stop-color="#659e5a"  />
			<stop offset="0.9" stop-color="#3e863d"  />
		</linearGradient>
	</defs>
	<style>
		tspan { white-space:pre }
		.shp0 { fill: #689f63 } 
		.shp1 { fill: #333333 } 
		.shp2 { fill: url(#grd1) } 
		.shp3 { fill: url(#grd2) } 
		.shp4 { fill: url(#grd3) } 
	</style>
	<path id="Layer" class="shp0" d="M63.18 127.97C62.75 127.97 62.33 127.79 61.97 127.44L58.11 123.71C57.54 123.18 57.82 123 58.01 122.89C58.77 122.45 58.93 122.35 59.75 121.59C59.83 121.51 59.95 121.54 60.04 121.62L63 124.49C63.1 124.59 63.25 124.59 63.35 124.49L74.9 113.6C75 113.5 75.07 113.3 75.07 113.09L75.07 91.32C75.07 91.1 75 90.91 74.89 90.8L63.36 79.92C63.25 79.81 63.11 79.81 63 79.92L51.46 90.8C51.35 90.9 51.28 91.11 51.28 91.31L51.28 113.09C51.28 113.3 51.35 113.49 51.46 113.59L54.62 116.58C56.34 117.98 57.39 116.33 57.39 114.67L57.39 93.18C57.39 92.87 57.53 92.63 57.72 92.63L59.18 92.63C59.37 92.63 59.52 92.87 59.52 93.18L59.52 114.68C59.52 118.42 58.27 120.57 56.1 120.57C55.43 120.57 54.91 120.57 53.44 119.38L50.41 116.53C49.66 115.82 49.2 114.5 49.2 113.09L49.2 91.31C49.2 89.9 49.66 88.57 50.41 87.88L61.96 76.98C62.69 76.3 63.67 76.3 64.39 76.98L75.93 87.88C76.68 88.58 77.14 89.9 77.14 91.32L77.14 113.09C77.14 114.51 76.68 115.82 75.93 116.53L64.39 127.43C64.02 127.78 63.6 127.96 63.17 127.96" />
	<path id="Layer" fill-rule="evenodd" class="shp0" d="M66.74 112.96C61.69 112.96 60.63 109.17 60.63 105.99C60.63 105.69 60.78 105.45 60.97 105.45L62.46 105.45C62.62 105.45 62.76 105.65 62.79 105.91C63.01 108.4 63.68 109.65 66.74 109.65C69.17 109.65 70.2 108.75 70.2 106.64C70.2 105.43 69.91 104.53 66.13 103.92C62.97 103.41 61.01 102.27 61.01 98.14C61.01 94.33 62.98 92.07 66.27 92.07C69.97 92.07 71.8 94.16 72.03 98.67C72.04 98.82 72 98.98 71.94 99.09C71.88 99.2 71.79 99.26 71.69 99.26L70.19 99.26C70.04 99.26 69.9 99.08 69.87 98.84C69.51 96.23 68.64 95.39 66.26 95.39C63.61 95.39 63.3 96.9 63.3 98.04C63.3 99.41 63.66 99.81 67.25 100.59C70.8 101.36 72.48 102.44 72.48 106.52C72.48 110.63 70.38 112.99 66.72 112.99M83.37 90.15C83.37 92.15 82.37 93.79 81.15 93.79C79.93 93.79 78.92 92.17 78.92 90.15C78.92 88.09 79.95 86.51 81.15 86.51C82.34 86.51 83.37 88.09 83.37 90.15M79.28 90.14C79.28 91.83 80.12 93.2 81.14 93.2C82.18 93.2 83.01 91.8 83.01 90.14C83.01 88.44 82.17 87.1 81.14 87.1C80.13 87.1 79.28 88.42 79.28 90.13M80.31 88.11L81.17 88.11C81.47 88.11 82.04 88.11 82.04 89.18C82.04 89.94 81.75 90.09 81.57 90.19C81.92 90.22 81.94 90.59 81.99 91.11C82.01 91.44 82.05 92 82.12 92.19L81.59 92.19C81.57 92 81.49 90.96 81.49 90.9C81.46 90.67 81.41 90.56 81.23 90.56L80.8 90.56L80.8 92.19L80.31 92.19L80.31 88.11ZM80.78 89.89L81.17 89.89C81.49 89.89 81.55 89.53 81.55 89.32C81.55 88.76 81.32 88.76 81.19 88.76L80.79 88.76L80.78 89.89Z" />
	<path id="Layer" fill-rule="evenodd" class="shp1" d="M27.41 73.77C27.41 74.2 27.26 74.6 27.04 74.81C26.81 75.03 26.53 75.03 26.3 74.81L19.03 68.01C18.57 67.56 18.29 66.77 18.29 65.91L18.29 51.43C18.29 50.56 18.01 49.76 17.55 49.33L14.45 46.42C14.23 46.2 13.97 46.09 13.72 46.09C13.46 46.09 13.21 46.2 12.98 46.42L9.88 49.33C9.42 49.76 9.14 50.56 9.14 51.43L9.14 65.91C9.14 66.77 8.86 67.56 8.4 68.01L1.13 74.82C0.9 75.05 0.62 75.05 0.39 74.82C0.16 74.61 0.03 74.2 0.03 73.77L0 42.77C0 41.9 0.28 41.1 0.74 40.67L12.98 29.16C13.19 28.96 13.42 28.86 13.65 28.84L13.78 28.84C14.02 28.86 14.25 28.96 14.45 29.16L26.69 40.67C27.15 41.1 27.43 41.9 27.43 42.77L27.41 73.77ZM93.6 6.8C94.07 7.23 94.36 8.03 94.36 8.91L94.36 66.5C94.36 67.36 94.08 68.15 93.62 68.59L81.38 80.15C80.92 80.58 80.36 80.58 79.9 80.15L67.66 68.59C67.2 68.16 66.92 67.36 66.92 66.5L66.92 43.39C66.92 42.53 67.2 41.74 67.66 41.31L79.9 29.76C80.36 29.32 80.92 29.32 81.38 29.76L84.44 32.64C84.6 32.79 84.8 32.79 84.96 32.64C85.12 32.49 85.22 32.21 85.22 31.91L85.22 1.21C85.22 0.78 85.36 0.38 85.58 0.17C85.81 -0.05 86.09 -0.06 86.32 0.15L93.6 6.8ZM85.18 50.98C85.18 50.76 85.11 50.56 84.99 50.45L80.79 46.49C80.67 46.38 80.53 46.38 80.42 46.49L76.22 50.45C76.1 50.56 76.03 50.76 76.03 50.98L76.03 58.91C76.03 59.13 76.1 59.33 76.22 59.43L80.42 63.39C80.54 63.5 80.68 63.5 80.79 63.39L85 59.43C85.11 59.33 85.18 59.13 85.18 58.91L85.18 50.98ZM119.74 57.74C119.51 57.96 119.23 57.96 119 57.75C118.77 57.53 118.63 57.13 118.63 56.7L118.63 51C118.63 50.57 118.49 50.17 118.26 49.96L114.43 46.34C114.2 46.13 113.92 46.13 113.69 46.34L109.86 49.96C109.63 50.17 109.49 50.57 109.49 51L109.49 58.25C109.49 58.68 109.63 59.08 109.86 59.29L122.18 70.85C122.41 71.06 122.55 71.47 122.55 71.9C122.55 72.33 122.4 72.74 122.17 72.95L114.81 79.63C114.36 80.04 113.81 80.04 113.36 79.62L101.2 68.29C100.74 67.86 100.46 67.05 100.46 66.18L100.46 43.09C100.46 42.22 100.74 41.43 101.2 41L113.44 29.45C113.89 29.01 114.46 29.01 114.92 29.45L127.08 40.99C127.54 41.42 127.82 42.22 127.82 43.08L127.82 48.68C127.82 49.54 127.54 50.34 127.08 50.77L119.74 57.74Z" />
	<path id="Layer" fill-rule="evenodd" class="shp0" d="M114 49.69C114.08 49.6 114.19 49.6 114.28 49.69L116.63 51.9C116.72 51.99 116.77 52.14 116.77 52.31L116.77 56.74C116.77 56.91 116.72 57.06 116.63 57.14L114.28 59.36C114.19 59.44 114.08 59.44 114 59.36L111.65 57.14C111.56 57.06 111.51 56.91 111.51 56.74L111.51 52.31C111.51 52.14 111.56 51.99 111.65 51.9L114 49.69Z" />
	<g id="Clip-Path" clip-path="url(#cp1)">
		<g id="Layer">
			<path id="Layer" class="shp2" d="M73.12 39.1L38.82 11.61L21.23 70.26L55.53 97.75L73.12 39.1Z" />
		</g>
	</g>
	<g id="Clip-Path" clip-path="url(#cp2)">
		<g id="Layer">
			<path id="Layer" class="shp3" d="M19 47.23L43.22 100.81L75.25 62.13L51.03 8.54L19 47.23Z" />
		</g>
	</g>
	<g id="Clip-Path" clip-path="url(#cp3)">
		<g id="Layer">
			<path id="Layer" class="shp4" d="M34.3 29.25L34.3 79.99L60.79 79.99L60.79 29.25L34.3 29.25Z" />
		</g>
	</g>
</svg>